<svg width="190" height="150" viewBox="0 0 190 150" fill="none" xmlns="http://www.w3.org/2000/svg">
<path d="M24 118.581V30.0807L94.5 1.08069L121 11.9046L138.5 19.0525L165.5 30.0807V118.581L94.5 148.081L24 118.581Z" fill="#D98F38"/>
<path d="M24 30.0807V118.581L94.5 148.081M24 30.0807L94.5 1.08069L121 11.9046M24 30.0807L50.5 40.6055M94.5 148.081V58.0807M94.5 148.081L165.5 118.581V30.0807M94.5 58.0807L165.5 30.0807M94.5 58.0807L68 47.5559M165.5 30.0807L138.5 19.0525M121 11.9046L50.5 40.6055M121 11.9046L138.5 19.0525M50.5 40.6055V77.5807L68 85.0807V47.5559M50.5 40.6055L68 47.5559M68 47.5559L138.5 19.0525M106.5 107.581L124.5 100.081M106.5 117.581L124.5 110.581M106.5 128.081L124.5 120.581" stroke="#2B212C" stroke-width="2"/>
</svg>
