<svg width="193" height="150" viewBox="0 0 193 150" fill="none" xmlns="http://www.w3.org/2000/svg">
<path d="M95.6816 148.081L25.1816 118.581V69.1458L1.68164 64.5807L25.1816 30.0807L95.6816 1.08069L166.682 30.0807L191.182 59.5807L166.682 69.1458V118.581L95.6816 148.081Z" fill="#D98F38"/>
<path d="M25.1816 30.0807L95.6816 1.08069L166.682 30.0807M25.1816 30.0807L95.6816 58.0807M25.1816 30.0807L1.68164 64.5807L25.1816 69.1458M25.1816 30.0807V69.1458M95.6816 148.081L25.1816 118.581V69.1458M95.6816 148.081V58.0807M95.6816 148.081L166.682 118.581V69.1458M95.6816 58.0807L166.682 30.0807M95.6816 58.0807L118.182 88.0807L166.682 69.1458M166.682 30.0807L191.182 59.5807L166.682 69.1458M107.682 107.581L125.682 100.081M107.682 117.581L125.682 110.581M107.682 128.081L125.682 120.581" stroke="#2B212C" stroke-width="2"/>
</svg>
